<?xml version="1.0" encoding="UTF-8" standalone="no"?>
<!DOCTYPE svg PUBLIC "-//W3C//DTD SVG 1.1//EN" "http://www.w3.org/Graphics/SVG/1.1/DTD/svg11.dtd">
<svg width="100%" height="100%" viewBox="0 0 900 469" version="1.1" xmlns="http://www.w3.org/2000/svg" xmlns:xlink="http://www.w3.org/1999/xlink" xml:space="preserve" xmlns:serif="http://www.serif.com/" style="fill-rule:evenodd;clip-rule:evenodd;stroke-linecap:round;stroke-linejoin:round;stroke-miterlimit:1.5;">
    <g transform="matrix(1,0,0,1,-50.08069,-265.922148)">
        <g transform="matrix(1.562049,0,0,1.562049,-241.769289,-755.020662)">
            <g transform="matrix(1.071222,0,-0,1,-252.740233,-0.536825)">
                <path d="M447.506,792.523C447.506,792.523 476.654,755.779 492.559,780.713C508.998,806.483 525.241,770.31 535.441,759.574C538.445,756.412 527.585,772.887 530.779,789.837C545.494,867.925 522.206,900.766 522.206,900.766C522.206,900.766 477.67,906.575 461.604,894.131C449.607,884.839 431.083,868.904 427.178,862.649C419.997,851.145 447.506,792.523 447.506,792.523ZM482.005,838.456C482.005,838.456 510.642,829.995 518.011,855.533C525.379,881.07 497.661,880.245 479.438,871.997C461.216,863.749 465.836,842.03 482.005,838.456Z" style="fill:rgb(0,94,208);"/>
            </g>
            <g transform="matrix(0.839056,0,-0,0.783269,-138.144971,184.41279)">
                <path d="M482.005,838.456C482.005,838.456 510.642,829.995 518.011,855.533C525.379,881.07 497.661,880.245 479.438,871.997C461.216,863.749 465.836,842.03 482.005,838.456Z" style="fill:none;stroke:white;stroke-width:17.19px;"/>
            </g>
            <g transform="matrix(-0.699079,-0.715045,0.715045,-0.699079,289.135619,1391.574606)">
                <path d="M351.029,334.643C351.029,334.643 451.449,253.09 467.674,349.06C467.674,349.06 489.873,463.119 456.589,515.728C456.589,515.728 438.593,440.226 400.287,423.296C400.287,423.296 345.555,405.547 336.11,375.012C332.445,363.162 335.496,349.564 351.029,334.643Z" style="fill:none;stroke:white;stroke-width:20.49px;"/>
            </g>
            <g transform="matrix(1.071222,0,0,1,-31.872512,0)">
                <path d="M447.506,792.523C447.506,792.523 468.402,765.145 492.559,780.713C516.716,796.281 528.527,768.903 538.726,758.166C544.75,751.826 537.511,796.649 524.548,832.479C515.56,857.319 500,876.609 500,876.609L467.916,849.148L447.506,792.523Z" style="fill:rgb(0,94,208);"/>
            </g>
            <g transform="matrix(-0.733453,-1.220184,1.220184,-0.733453,305.750392,1978.778623)">
                <path d="M714.041,512.89C714.041,512.89 617.654,382.456 577.392,451.573C577.392,451.573 560.616,492.506 557.261,509.282" style="fill:none;stroke:white;stroke-width:14.39px;"/>
            </g>
            <g transform="matrix(-0.609887,-1.014618,1.014618,-0.609887,537.459418,1786.455271)">
                <path d="M714.041,512.89C714.041,512.89 617.654,382.456 577.392,451.573C577.392,451.573 560.616,492.506 557.261,509.282" style="fill:none;stroke:white;stroke-width:17.31px;"/>
            </g>
            <g transform="matrix(-0.267632,-1.153163,1.153163,-0.267632,276.175366,1604.267003)">
                <path d="M577.392,451.573C577.392,451.573 560.616,492.506 557.261,509.282" style="fill:none;stroke:white;stroke-width:17.31px;"/>
            </g>
            <g transform="matrix(-1.018627,0.603168,0.603168,1.018627,1013.116953,-96.505628)">
                <path d="M714.041,512.89C714.041,512.89 617.654,382.456 577.392,451.573C577.392,451.573 560.616,492.506 557.261,509.282" style="fill:none;stroke:white;stroke-width:17.31px;"/>
            </g>
            <g transform="matrix(0.702554,0,0,0.702554,125.788875,447.151625)">
                <path d="M351.049,335.038C351.049,335.038 473.04,257.391 474.52,386.708C474.52,386.708 461.099,476.401 464.454,500C464.454,500 463.745,553.124 500,593.386C536.255,633.649 559.319,593.386 559.319,593.386" style="fill:none;stroke:white;stroke-width:29.16px;"/>
            </g>
            <g transform="matrix(-0.702554,0,0,0.702554,870.017163,447.151625)">
                <path d="M351.049,335.038C351.049,335.038 485.877,248.833 474.52,386.708C474.52,386.708 461.099,476.401 464.454,500C464.454,500 473.526,548.821 500,593.386" style="fill:none;stroke:white;stroke-width:29.16px;"/>
            </g>
            <path d="M496.08,780.93C496.08,780.93 533.657,801.713 532.841,772.631C532.841,772.631 518.085,793.13 496.08,780.93Z" style="fill:rgb(0,56,125);"/>
            <path d="M275.862,781.532C275.862,781.532 285.08,796.54 298.701,784.74C298.701,784.74 292.071,804.1 275.862,781.532Z" style="fill:rgb(11,61,122);"/>
        </g>
    </g>
</svg>
