<?xml version="1.0" encoding="UTF-8" standalone="no"?><!DOCTYPE svg PUBLIC "-//W3C//DTD SVG 1.1//EN" "http://www.w3.org/Graphics/SVG/1.1/DTD/svg11.dtd"><svg width="100%" height="100%" viewBox="0 0 256 256" version="1.1" xmlns="http://www.w3.org/2000/svg" xmlns:xlink="http://www.w3.org/1999/xlink" xml:space="preserve" xmlns:serif="http://www.serif.com/" style="fill-rule:evenodd;clip-rule:evenodd;stroke-linejoin:round;stroke-miterlimit:2;"><path d="M69.214,208.806l-18.446,0c-15.295,0 -27.712,-12.417 -27.712,-27.712l0,-106.187c0,-15.295 12.417,-27.712 27.712,-27.712l18.446,0c-15.295,0 -27.712,12.417 -27.712,27.712l0,106.187c0,15.295 12.417,27.712 27.712,27.712Z" style="fill:#8b4512;"/><path d="M93.626,208.806l-18.446,0c-15.295,0 -27.712,-12.417 -27.712,-27.712l0,-106.187c0,-15.295 12.417,-27.712 27.712,-27.712l18.446,0c-15.295,0 -27.712,12.417 -27.712,27.712l0,106.187c0,15.295 12.417,27.712 27.712,27.712Z" style="fill:#a8a8a8;"/><path d="M118.038,208.806l-18.446,0c-15.295,0 -27.712,-12.417 -27.712,-27.712l0,-106.187c0,-15.295 12.417,-27.712 27.712,-27.712l18.446,0c-15.295,0 -27.712,12.417 -27.712,27.712l0,106.187c0,15.295 12.417,27.712 27.712,27.712Z" style="fill:#a8a8a8;"/><path d="M143.367,208.806l-18.446,0c-15.295,0 -27.712,-12.417 -27.712,-27.712l0,-106.187c0,-15.295 12.417,-27.712 27.712,-27.712l18.446,0c-15.295,0 -27.712,12.417 -27.712,27.712l0,106.187c0,15.295 12.417,27.712 27.712,27.712Z" style="fill:#a8a8a8;"/><path d="M205.232,208.806l-55.425,0c-15.295,0 -27.712,-12.417 -27.712,-27.712l0,-106.187c0,-15.295 12.417,-27.712 27.712,-27.712l55.425,0c15.295,0 27.712,12.417 27.712,27.712l0,106.187c0,15.295 -12.417,27.712 -27.712,27.712Z" style="fill:#b8860b;"/></svg>