<?xml version="1.0" encoding="UTF-8" standalone="no"?>
<!DOCTYPE svg PUBLIC "-//W3C//DTD SVG 1.1//EN" "http://www.w3.org/Graphics/SVG/1.1/DTD/svg11.dtd">
<svg width="100%" height="100%" viewBox="0 0 500 500" version="1.1" xmlns="http://www.w3.org/2000/svg" xmlns:xlink="http://www.w3.org/1999/xlink" xml:space="preserve" xmlns:serif="http://www.serif.com/" style="fill-rule:evenodd;clip-rule:evenodd;stroke-linejoin:round;stroke-miterlimit:2;">
    <g transform="matrix(1.163534,0,0,1.202894,-0.804958,-42.447858)">
        <path d="M162.88,119.931L162.88,167.713C162.88,180.063 152.514,190.09 139.746,190.09L93.478,190.09C80.71,190.09 70.344,180.063 70.344,167.713L70.344,119.931C70.344,107.581 80.71,97.554 93.478,97.554L139.746,97.554C152.514,97.554 162.88,107.581 162.88,119.931Z" style="fill:rgb(64,64,64);"/>
    </g>
    <g transform="matrix(1.163534,0,0,1.202894,114.317525,-42.447858)">
        <path d="M162.88,119.931L162.88,167.713C162.88,180.063 152.514,190.09 139.746,190.09L93.478,190.09C80.71,190.09 70.344,180.063 70.344,167.713L70.344,119.931C70.344,107.581 80.71,97.554 93.478,97.554L139.746,97.554C152.514,97.554 162.88,107.581 162.88,119.931Z" style="fill:rgb(22,168,2);"/>
    </g>
    <g transform="matrix(1.163534,0,0,1.202894,229.44001,-42.447858)">
        <path d="M162.88,119.931L162.88,167.713C162.88,180.063 152.514,190.09 139.746,190.09L93.478,190.09C80.71,190.09 70.344,180.063 70.344,167.713L70.344,119.931C70.344,107.581 80.71,97.554 93.478,97.554L139.746,97.554C152.514,97.554 162.88,107.581 162.88,119.931Z" style="fill:rgb(12,99,0);"/>
    </g>
    <g transform="matrix(1.163534,0,0,1.202894,-0.804958,76.568939)">
        <path d="M162.88,119.931L162.88,167.713C162.88,180.063 152.514,190.09 139.746,190.09L93.478,190.09C80.71,190.09 70.344,180.063 70.344,167.713L70.344,119.931C70.344,107.581 80.71,97.554 93.478,97.554L139.746,97.554C152.514,97.554 162.88,107.581 162.88,119.931Z" style="fill:rgb(176,0,0);"/>
    </g>
    <g transform="matrix(1.163534,0,0,1.202894,114.317525,76.568939)">
        <path d="M162.88,119.931L162.88,167.713C162.88,180.063 152.514,190.09 139.746,190.09L93.478,190.09C80.71,190.09 70.344,180.063 70.344,167.713L70.344,119.931C70.344,107.581 80.71,97.554 93.478,97.554L139.746,97.554C152.514,97.554 162.88,107.581 162.88,119.931Z" style="fill:rgb(64,64,64);"/>
    </g>
    <g transform="matrix(1.163534,0,0,1.202894,229.44001,76.568939)">
        <path d="M162.88,119.931L162.88,167.713C162.88,180.063 152.514,190.09 139.746,190.09L93.478,190.09C80.71,190.09 70.344,180.063 70.344,167.713L70.344,119.931C70.344,107.581 80.71,97.554 93.478,97.554L139.746,97.554C152.514,97.554 162.88,107.581 162.88,119.931Z" style="fill:rgb(206,132,132);"/>
    </g>
    <g transform="matrix(1.163534,0,0,1.202894,-0.804958,196.44197)">
        <path d="M162.88,119.931L162.88,167.713C162.88,180.063 152.514,190.09 139.746,190.09L93.478,190.09C80.71,190.09 70.344,180.063 70.344,167.713L70.344,119.931C70.344,107.581 80.71,97.554 93.478,97.554L139.746,97.554C152.514,97.554 162.88,107.581 162.88,119.931Z" style="fill:rgb(77,0,0);"/>
    </g>
    <g transform="matrix(1.163534,0,0,1.202894,114.317525,196.44197)">
        <path d="M162.88,119.931L162.88,167.713C162.88,180.063 152.514,190.09 139.746,190.09L93.478,190.09C80.71,190.09 70.344,180.063 70.344,167.713L70.344,119.931C70.344,107.581 80.71,97.554 93.478,97.554L139.746,97.554C152.514,97.554 162.88,107.581 162.88,119.931Z" style="fill:rgb(137,255,137);"/>
    </g>
    <g transform="matrix(1.163534,0,0,1.202894,229.44001,196.44197)">
        <path d="M162.88,119.931L162.88,167.713C162.88,180.063 152.514,190.09 139.746,190.09L93.478,190.09C80.71,190.09 70.344,180.063 70.344,167.713L70.344,119.931C70.344,107.581 80.71,97.554 93.478,97.554L139.746,97.554C152.514,97.554 162.88,107.581 162.88,119.931Z" style="fill:rgb(64,64,64);"/>
    </g>
</svg>
