<?xml version="1.0" encoding="UTF-8" standalone="no"?>
<!DOCTYPE svg PUBLIC "-//W3C//DTD SVG 1.1//EN" "http://www.w3.org/Graphics/SVG/1.1/DTD/svg11.dtd">
<svg width="100%" height="100%" viewBox="0 0 190 188" version="1.1" xmlns="http://www.w3.org/2000/svg" xmlns:xlink="http://www.w3.org/1999/xlink" xml:space="preserve" xmlns:serif="http://www.serif.com/" style="fill-rule:evenodd;clip-rule:evenodd;stroke-linejoin:round;stroke-miterlimit:2;">
    <g transform="matrix(1,0,0,1,-33.173537,-34.148814)">
        <g transform="matrix(2.225679,2.225679,-1.917273,1.917273,134.833672,58.509134)">
            <path d="M20.082,29.378L20.082,60.387C20.082,62.381 18.688,64 16.97,64L10.744,64C9.026,64 7.631,62.381 7.631,60.387L7.631,29.378C7.631,27.384 9.026,25.765 10.744,25.765L16.97,25.765C18.688,25.765 20.082,27.384 20.082,29.378Z" style="fill:rgb(82,140,241);"/>
        </g>
        <g transform="matrix(3.147586,0,0,3.147586,30.094443,1.065755)">
            <path d="M59.574,21.925C60.639,24.314 61.232,26.959 61.232,29.742C61.232,40.356 52.614,48.973 42,48.973C31.386,48.973 22.769,40.356 22.769,29.742C22.769,19.128 31.386,10.511 42,10.511C44.033,10.511 45.993,10.827 47.832,11.412L33.821,25.423C32.286,26.959 32.286,29.452 33.821,30.987L39.385,36.55C40.92,38.086 43.413,38.086 44.948,36.55L59.574,21.925Z" style="fill:rgb(82,140,241);"/>
        </g>
        <g transform="matrix(0.353553,-0.353553,0.4748,0.4748,111.060862,79.63248)">
            <path d="M49.656,59.926L73.975,59.926C78.392,59.926 81.978,61.719 81.978,63.928L81.978,90.968C81.978,93.177 78.392,94.97 73.975,94.97L28.555,94.97C24.137,94.97 20.551,93.177 20.551,90.968L20.551,82.965C20.551,80.756 24.137,78.963 28.555,78.963L33.594,78.963C34.432,83.24 41.35,86.631 49.964,86.943C50.394,86.959 50.827,86.967 51.265,86.967C60.474,86.967 68.056,83.453 68.935,78.963C68.992,78.676 69.02,78.384 69.02,78.089C69.02,73.734 62.735,70.107 54.456,69.354L30.138,69.354C25.721,69.354 22.134,67.561 22.134,65.353L22.134,38.312C22.134,36.103 25.721,34.31 30.138,34.31L75.558,34.31C79.975,34.31 83.561,36.103 83.561,38.312L83.561,46.315C83.561,48.524 79.975,50.317 75.558,50.317L70.518,50.317C69.68,46.04 62.762,42.649 54.148,42.337C53.719,42.322 53.285,42.314 52.848,42.314C43.638,42.314 36.057,45.827 35.177,50.317C35.121,50.605 35.092,50.896 35.092,51.191C35.092,55.547 41.378,59.173 49.656,59.926Z" style="fill:rgb(249,174,46);"/>
        </g>
        <g transform="matrix(-0.345064,0.345064,0.4748,0.4748,171.390351,19.047235)">
            <path d="M49.656,59.926L73.975,59.926C78.392,59.926 81.978,61.719 81.978,63.928L81.978,90.968C81.978,93.177 78.392,94.97 73.975,94.97L28.555,94.97C24.137,94.97 20.551,93.177 20.551,90.968L20.551,82.965C20.551,80.756 24.137,78.963 28.555,78.963L33.594,78.963C34.432,83.24 41.35,86.631 49.964,86.943C50.394,86.959 50.827,86.967 51.265,86.967C60.474,86.967 68.056,83.453 68.935,78.963C68.992,78.676 69.02,78.384 69.02,78.089C69.02,73.734 62.735,70.107 54.456,69.354L30.138,69.354C25.721,69.354 22.134,67.561 22.134,65.353L22.134,38.312C22.134,36.103 25.721,34.31 30.138,34.31L75.558,34.31C79.975,34.31 83.561,36.103 83.561,38.312L83.561,46.315C83.561,48.524 79.975,50.317 75.558,50.317L70.518,50.317C69.68,46.04 62.762,42.649 54.148,42.337C53.719,42.322 53.285,42.314 52.848,42.314C43.638,42.314 36.057,45.827 35.177,50.317C35.121,50.605 35.092,50.896 35.092,51.191C35.092,55.547 41.378,59.173 49.656,59.926Z" style="fill:rgb(249,174,46);"/>
        </g>
    </g>
</svg>
