<?xml version="1.0" encoding="UTF-8" standalone="no"?>
<!DOCTYPE svg PUBLIC "-//W3C//DTD SVG 1.1//EN" "http://www.w3.org/Graphics/SVG/1.1/DTD/svg11.dtd">
<svg width="100%" height="100%" viewBox="0 0 512 512" version="1.1" xmlns="http://www.w3.org/2000/svg" xmlns:xlink="http://www.w3.org/1999/xlink" xml:space="preserve" xmlns:serif="http://www.serif.com/" style="fill-rule:evenodd;clip-rule:evenodd;stroke-linejoin:round;stroke-miterlimit:2;">
    <g transform="matrix(0.890639,0,0,0.890639,27.996349,27.996349)">
        <g transform="matrix(1,0,0,1,-7.138391,-45.075726)">
            <path d="M474.063,195.614L474.063,406.538C474.063,464.744 426.807,512 368.601,512L157.676,512C99.47,512 52.214,464.744 52.214,406.538L52.214,195.614C52.214,137.407 99.47,90.151 157.676,90.151L368.601,90.151C426.807,90.151 474.063,137.407 474.063,195.614Z" style="fill:rgb(23,101,235);"/>
        </g>
        <g transform="matrix(1,0,0,1,-73.126843,-52.017683)">
            <path d="M314.741,162.75C317.348,157.16 322.958,153.586 329.127,153.586C335.295,153.586 340.905,157.16 343.512,162.75L383.305,248.076L476.751,259.554C482.874,260.306 488.006,264.537 489.912,270.403C491.819,276.27 490.153,282.71 485.642,286.917L416.788,351.129L434.749,443.549C435.926,449.604 433.488,455.792 428.498,459.418C423.507,463.044 416.868,463.45 411.473,460.46L329.127,414.818L246.781,460.46C241.385,463.45 234.746,463.044 229.756,459.418C224.765,455.792 222.328,449.604 223.504,443.549L241.465,351.129L172.612,286.917C168.1,282.71 166.435,276.27 168.341,270.403C170.247,264.537 175.38,260.306 181.502,259.554L274.949,248.076L314.741,162.75Z"/>
        </g>
    </g>
</svg>
